# This file uses centimeters as units for non-parametric coordinates.

v -0.202259 0.000000 0.030840
v 0.202259 0.000000 0.030840
v -0.202259 0.030840 0.000000
v 0.202259 0.030840 0.000000
v -0.202259 0.000000 -0.030840
v 0.202259 0.000000 -0.030840
v -0.202259 -0.030840 0.000000
v 0.202259 -0.030840 0.000000
v 0.494948 0.000000 0.000000
v -0.494948 0.000000 0.000000
v 0.000000 0.045838 0.000000
v 0.000000 0.000000 -0.045838
v 0.000000 -0.045838 0.000000
v 0.000000 0.000000 0.045838
vt 0.375000 0.000000
vt 0.625000 0.000000
vt 0.375000 0.250000
vt 0.625000 0.250000
vt 0.375000 0.500000
vt 0.625000 0.500000
vt 0.375000 0.750000
vt 0.625000 0.750000
vt 0.375000 1.000000
vt 0.625000 1.000000
vt 0.875000 0.000000
vt 0.875000 0.250000
vt 0.125000 0.000000
vt 0.125000 0.250000
vt 0.750000 0.125000
vt 0.250000 0.125000
vt 0.500000 0.250000
vt 0.500000 0.500000
vt 0.500000 0.750000
vt 0.500000 0.000000
vt 0.500000 1.000000
vn -0.084749 0.000000 0.996402
vn 0.000000 0.000000 1.000000
vn 0.000000 1.000000 0.000000
vn -0.084749 0.996402 0.000000
vn 0.000000 0.000000 -1.000000
vn -0.084749 0.000000 -0.996402
vn 0.000000 -1.000000 0.000000
vn -0.084749 -0.996402 0.000000
vn 0.084749 0.996402 0.000000
vn 1.000000 0.000000 0.000000
vn 0.084749 0.000000 -0.996402
vn -1.000000 0.000000 0.000000
vn 0.084749 0.000000 0.996402
vn 0.084749 -0.996402 0.000000
s 1
g line
f 1/1/1 14/20/2 11/17/3 3/3/4
f 3/3/4 11/17/3 12/18/5 5/5/6
f 5/5/6 12/18/5 13/19/7 7/7/8
f 7/7/8 13/19/7 14/21/2 1/9/1
f 4/4/9 9/15/10 6/12/11
f 5/14/6 10/16/12 3/3/4
f 2/2/13 8/11/14 9/15/10
f 9/15/10 8/11/14 6/12/11
f 2/2/13 9/15/10 4/4/9
f 7/13/8 1/1/1 10/16/12
f 10/16/12 1/1/1 3/3/4
f 7/13/8 10/16/12 5/14/6
f 11/17/3 4/4/9 6/6/11 12/18/5
f 13/19/7 12/18/5 6/6/11 8/8/14
f 14/21/2 13/19/7 8/8/14 2/10/13
f 11/17/3 14/20/2 2/2/13 4/4/9
